REM MD5 0b5311bc4371f424666105c10e001cc1
FILE "X-Men - Mutant Academy & Spider-Man (Japan) (Demo).bin" BINARY
  TRACK 01 MODE2/2352
    INDEX 01 00:00:00
  TRACK 02 AUDIO
    INDEX 00 29:57:71
    INDEX 01 29:59:71
  TRACK 03 AUDIO
    INDEX 00 31:48:58
    INDEX 01 31:50:58
  TRACK 04 AUDIO
    INDEX 00 33:28:29
    INDEX 01 33:30:29
  TRACK 05 AUDIO
    INDEX 00 35:15:22
    INDEX 01 35:17:22
  TRACK 06 AUDIO
    INDEX 00 36:48:38
    INDEX 01 36:50:38
REM LEADOUT 39:50:38
